# File created by Blade
# Date/Time:  Tue Apr 07 20:57:09 2015
# Frame Rate: 120.000 fps
#------------------------------------------------------
:FULLY-SPECIFIED
:DEGREES
500
root -27.831777 33.467635 8.677460 37.054579 -87.886357 -28.276161
Spine -12.452648 -8.330261 2.080254
Head 22.365399 -1.417144 -0.158561
LeftShoulder -16.120195 18.088275 43.627564
LeftArm 118.791461 -62.343848 -74.575183
LeftForeArm 21.884598 -0.000000 21.694063
LeftHand 8.081737 0.000000 24.164077
LeftHandThumb1 -26.253704 0.000000 33.147579
RightShoulder -18.302469 36.054911 -60.810424
RightArm 56.680944 23.676825 35.815725
RightForeArm -21.152282 -0.000000 14.806306
RightHand 15.605939 0.000000 -30.049859
RightHandThumb1 -24.326973 -0.000000 -32.862282
LeftUpLeg -0.173991 -4.489648 -0.150214
LeftLeg -4.929449 -0.000000 0.000000
LeftFoot -1.136614 5.431901 -15.233654
LeftToeBase -16.009965 -0.000000 0.000000
RightUpLeg -1.191736 -0.395513 3.222815
RightLeg -3.578262 -0.000000 0.000000
RightFoot -4.479391 -5.894459 7.083012
RightToeBase -6.738960 -0.000000 0.000000
501
root -27.827664 33.461935 8.665667 38.565040 -87.878639 -29.736851
Spine -12.453641 -8.227806 2.122688
Head 22.305523 -1.431237 -0.231539
LeftShoulder -16.118279 18.082244 43.668336
LeftArm 118.537330 -62.392771 -74.185069
LeftForeArm 21.827906 -0.000000 21.603568
LeftHand 8.025320 -0.000000 24.129566
LeftHandThumb1 -26.253704 0.000000 33.147579
RightShoulder -18.290383 36.088516 -60.817975
RightArm 56.715927 23.694714 35.734030
RightForeArm -20.707404 0.000000 14.711614
RightHand 16.085328 -0.000000 -30.156626
RightHandThumb1 -24.326973 -0.000000 -32.862282
LeftUpLeg -0.135968 -4.878677 -0.074570
LeftLeg -5.116944 -0.000000 0.000000
LeftFoot -1.261983 5.870990 -15.235576
LeftToeBase -15.847513 -0.000000 0.000000
RightUpLeg -1.047418 -0.509202 3.274256
RightLeg -3.988663 -0.000000 0.000000
RightFoot -4.205913 -5.724802 7.261348
RightToeBase -6.777204 -0.000000 0.000000
502
root -27.822128 33.455263 8.654203 39.874062 -87.914059 -30.980620
Spine -12.462789 -8.075630 2.113941
Head 22.220632 -1.485498 -0.273229
LeftShoulder -16.103334 17.963180 43.747927
LeftArm 118.222623 -62.369599 -73.790332
LeftForeArm 21.853459 0.000000 21.568591
LeftHand 8.039173 -0.000000 23.885181
LeftHandThumb1 -26.253704 0.000000 33.147579
RightShoulder -18.319161 36.081411 -60.841187
RightArm 56.786847 23.753482 35.760850
RightForeArm -20.379935 -0.000000 14.642874
RightHand 16.790572 -0.000000 -30.235629
RightHandThumb1 -24.326973 -0.000000 -32.862282
LeftUpLeg -0.132693 -5.069598 -0.053693
LeftLeg -5.258776 -0.000000 0.000000
LeftFoot -1.399780 6.216466 -15.155472
LeftToeBase -15.497510 -0.000000 0.000000
RightUpLeg -0.953692 -0.661392 3.306537
RightLeg -4.347125 -0.000000 0.000000
RightFoot -3.945339 -5.569560 7.317388
RightToeBase -6.874076 -0.000000 0.000000
503
root -27.814603 33.446560 8.640420 41.636754 -87.951267 -32.645292
Spine -12.502677 -7.892134 2.101038
Head 22.120981 -1.557379 -0.272949
LeftShoulder -16.062844 17.863483 43.841758
LeftArm 118.003957 -62.357440 -73.500363
LeftForeArm 21.952703 -0.000000 21.564176
LeftHand 7.876611 -0.000000 23.649075
LeftHandThumb1 -26.253704 0.000000 33.147579
RightShoulder -18.395506 36.168098 -60.910334
RightArm 56.780710 23.749122 35.804674
RightForeArm -20.240382 -0.000000 14.621055
RightHand 17.244108 -0.000000 -30.402061
RightHandThumb1 -24.326973 -0.000000 -32.862282
LeftUpLeg -0.132137 -5.332266 -0.006828
LeftLeg -5.469770 -0.000000 0.000000
LeftFoot -1.511819 6.622520 -15.068805
LeftToeBase -15.269811 -0.000000 0.000000
RightUpLeg -0.924370 -0.804494 3.366751
RightLeg -4.652301 -0.000000 0.000000
RightFoot -3.762923 -5.443565 7.387754
RightToeBase -6.813138 -0.000000 0.000000
504
root -27.805056 33.435626 8.628101 43.505350 -88.004074 -34.406570
Spine -12.550022 -7.694112 2.075182
Head 21.994547 -1.625445 -0.251770
LeftShoulder -16.022265 17.807012 43.925098
LeftArm 117.839249 -62.385968 -73.241062
LeftForeArm 21.953069 -0.000000 21.544419
LeftHand 7.777926 -0.000000 23.439350
LeftHandThumb1 -26.253704 0.000000 33.147579
RightShoulder -18.436632 36.169325 -60.945398
RightArm 56.774994 23.801822 35.840551
RightForeArm -20.073090 -0.000000 14.687284
RightHand 17.748543 -0.000000 -30.560327
RightHandThumb1 -24.326973 -0.000000 -32.862282
LeftUpLeg -0.105363 -5.741977 0.031959
LeftLeg -5.757066 -0.000000 0.000000
LeftFoot -1.646937 7.211813 -15.011522
LeftToeBase -15.034065 -0.000000 0.000000
RightUpLeg -0.934150 -0.976810 3.427356
RightLeg -4.902387 -0.000000 0.000000
RightFoot -3.640151 -5.306684 7.363347
RightToeBase -6.741098 -0.000000 0.000000
505
root -27.794794 33.423868 8.613211 46.240271 -88.072989 -37.036349
Spine -12.585109 -7.491116 2.049530
Head 21.845471 -1.656312 -0.202031
LeftShoulder -16.005131 17.864243 43.980472
LeftArm 117.748840 -62.522150 -73.056288
LeftForeArm 21.952405 -0.000000 21.612121
LeftHand 7.652589 -0.000000 23.166168
LeftHandThumb1 -26.253704 0.000000 33.147579
RightShoulder -18.467448 36.175184 -60.961732
RightArm 56.802634 23.904854 35.956994
RightForeArm -20.320052 -0.000000 14.799052
RightHand 18.279030 -0.000000 -30.912159
RightHandThumb1 -24.326973 -0.000000 -32.862282
LeftUpLeg -0.094113 -6.069500 0.078858
LeftLeg -6.003964 -0.000000 0.000000
LeftFoot -1.802474 7.730536 -14.910259
LeftToeBase -14.699743 -0.000000 0.000000
RightUpLeg -0.972334 -1.014655 3.503282
RightLeg -5.091086 -0.000000 0.000000
RightFoot -3.529364 -5.311006 7.148289
RightToeBase -6.782345 -0.000000 0.000000
506
root -27.782513 33.411858 8.599008 49.074343 -88.152523 -39.736096
Spine -12.654586 -7.301064 2.016710
Head 21.712053 -1.686271 -0.163393
LeftShoulder -15.991039 17.994472 43.997523
LeftArm 118.042456 -62.622866 -73.191690
LeftForeArm 21.991250 0.000000 21.555818
LeftHand 7.610454 -0.000000 23.015922
LeftHandThumb1 -26.253704 0.000000 33.147579
RightShoulder -18.461510 36.156208 -60.925226
RightArm 56.828239 23.957635 35.931147
RightForeArm -20.413695 0.000000 14.907420
RightHand 18.444111 -0.000000 -31.353450
RightHandThumb1 -24.326973 -0.000000 -32.862282
LeftUpLeg -0.134208 -6.348700 0.106855
LeftLeg -6.207039 -0.000000 0.000000
LeftFoot -1.938126 8.216820 -14.723441
LeftToeBase -14.489988 -0.000000 0.000000
RightUpLeg -1.064536 -1.021382 3.573811
RightLeg -5.241236 -0.000000 0.000000
RightFoot -3.474638 -5.343161 6.948160
RightToeBase -6.667369 -0.000000 0.000000
